HIERARCHY
ROOT Hips
{
    OFFSET 0.000000 0.000000 0.000000
    CHANNELS 6 Xposition Yposition Zposition Zrotation Xrotation Yrotation
    JOINT Spine
    {
        OFFSET -0.000000 14.517291 0.000000
        CHANNELS 3 Zrotation Xrotation Yrotation
        JOINT Spine1
        {
            OFFSET -0.000000 37.558300 0.000000
            CHANNELS 3 Zrotation Xrotation Yrotation
            JOINT Neck
            {
                OFFSET -0.000000 37.404057 3.400369
                CHANNELS 3 Zrotation Xrotation Yrotation
                JOINT Head
                {
                    OFFSET -0.000000 24.785618 -3.540803
                    CHANNELS 3 Zrotation Xrotation Yrotation
                    End Site
                    {
                        OFFSET -0.000000 35.408028 0.000000
                    }
                }
            }
            JOINT LeftShoulder
            {
                OFFSET 6.992933 33.973492 -0.192664
                CHANNELS 3 Zrotation Xrotation Yrotation
                JOINT LeftArm
                {
                    OFFSET 21.527611 0.000000 0.000000
                    CHANNELS 3 Zrotation Xrotation Yrotation
                    JOINT LeftForeArm
                    {
                        OFFSET 56.353916 0.000000 0.000000
                        CHANNELS 3 Zrotation Xrotation Yrotation
                        JOINT LeftHand
                        {
                            OFFSET 47.774071 0.000000 0.000000
                            CHANNELS 3 Zrotation Xrotation Yrotation
                            End Site
                            {
                                OFFSET 26.556021 0.000000 0.000000
                            }
                        }
                    }
                }
            }
            JOINT RightShoulder
            {
                OFFSET -7.065357 33.973492 -0.192664
                CHANNELS 3 Zrotation Xrotation Yrotation
                JOINT RightArm
                {
                    OFFSET -21.527611 0.000000 0.000000
                    CHANNELS 3 Zrotation Xrotation Yrotation
                    JOINT RightForeArm
                    {
                        OFFSET -56.353916 0.000000 0.000000
                        CHANNELS 3 Zrotation Xrotation Yrotation
                        JOINT RightHand
                        {
                            OFFSET -47.774071 0.000000 0.000000
                            CHANNELS 3 Zrotation Xrotation Yrotation
                            End Site
                            {
                                OFFSET -26.556021 0.000000 0.000000
                            }
                        }
                    }
                }
            }
        }
    }
    JOINT LeftUpLeg
    {
        OFFSET 17.704014 0.000000 0.000000
        CHANNELS 3 Zrotation Xrotation Yrotation
        JOINT LeftLeg
        {
            OFFSET -0.000000 -81.181816 0.000000
            CHANNELS 3 Zrotation Xrotation Yrotation
            JOINT LeftFoot
            {
                OFFSET -0.000000 -62.821102 0.000000
                CHANNELS 3 Zrotation Xrotation Yrotation
                JOINT LeftToeBase
                {
                    OFFSET -0.000000 -11.507608 26.556021
                    CHANNELS 3 Zrotation Xrotation Yrotation
                    End Site
                    {
                        OFFSET -0.000000 0.000000 7.081605
                    }
                }
            }
        }
    }
    JOINT RightUpLeg
    {
        OFFSET -17.704014 0.000000 0.000000
        CHANNELS 3 Zrotation Xrotation Yrotation
        JOINT RightLeg
        {
            OFFSET -0.000000 -81.181816 0.000000
            CHANNELS 3 Zrotation Xrotation Yrotation
            JOINT RightFoot
            {
                OFFSET -0.000000 -62.821102 0.000000
                CHANNELS 3 Zrotation Xrotation Yrotation
                JOINT RightToeBase
                {
                    OFFSET -0.000000 -11.507608 26.556021
                    CHANNELS 3 Zrotation Xrotation Yrotation
                    End Site
                    {
                        OFFSET -0.000000 0.000000 7.081605
                    }
                }
            }
        }
    }
}
MOTION
Frames:    5
Frame Time:    0.008333
35.696018    160.062973    -37.521576    32.052464    7.701411    -67.988213    10.026771    9.894003    4.688128    1.789795    -0.313764    1.837707    23.976355    -7.168501    19.453215    -23.455803    0.346879    11.871501    17.738838    -7.111857    -14.402210    -8.634225    -21.563467    -33.772312    20.652077    -47.167942    -3.912467    -25.181137    -38.890114    -45.022465    -7.176508    -0.321021    3.168788    32.798241    6.378691    77.844467    9.012849    -5.547231    104.443718    4.454031    -16.224947    20.417711    21.470617    -43.355705    8.842203    -7.556687    6.235250    -2.248649    -19.171705    10.997713    45.756996    0.000000    0.000000    0.000000    -29.424376    -42.623116    -8.447611    2.706833    24.338718    0.074249    11.726009    -4.512561    -14.340093    0.000000    0.000000    0.000000    
35.717289    160.052887    -37.502403    32.006092    7.688003    -67.977951    9.993895    9.867672    4.695344    1.824496    -0.292612    1.838176    23.925556    -7.196586    19.450796    -23.397890    0.352484    11.883559    17.715954    -7.136360    -14.422709    -8.629103    -21.587696    -33.745300    20.600546    -47.148129    -3.906728    -25.189411    -38.870411    -45.005005    -7.190044    -0.324070    3.134026    32.810265    6.392908    77.855400    9.035982    -5.523071    104.464508    4.433419    -16.238947    20.409100    21.450623    -43.319672    8.793416    -7.566241    6.239015    -2.241177    -19.151236    10.981995    45.761700    0.000000    0.000000    0.000000    -29.411871    -42.572472    -8.402457    2.711496    24.321930    0.054063    11.753819    -4.524371    -14.349590    0.000000    0.000000    0.000000    
35.739788    160.045746    -37.476707    31.965681    7.663946    -67.961807    9.987714    9.833467    4.679398    1.818585    -0.255844    1.831258    23.822268    -7.391554    19.452141    -23.214434    0.566222    11.935402    17.683222    -7.137284    -14.409121    -8.591993    -21.614660    -33.731194    20.556702    -47.168602    -3.896265    -25.160196    -38.910984    -44.983215    -7.227764    -0.321188    3.119732    32.846085    6.413095    77.889717    9.040710    -5.513723    104.477821    4.431329    -16.240587    20.367006    21.403591    -43.286148    8.716205    -7.571314    6.232668    -2.198716    -19.127855    10.975136    45.740032    0.000000    0.000000    0.000000    -29.418646    -42.520950    -8.382782    2.708271    24.307430    0.055088    11.751424    -4.522245    -14.346318    0.000000    0.000000    0.000000    
35.760994    160.040314    -37.458702    31.913481    7.647275    -67.943832    9.988673    9.806143    4.653957    1.785522    -0.219637    1.821411    23.880243    -7.214480    19.457432    -23.360512    0.329138    11.897386    17.706549    -7.133799    -14.369925    -8.547519    -21.545723    -33.731354    20.635107    -47.217049    -3.801212    -25.188646    -38.966114    -44.992809    -7.192453    -0.340378    3.127063    32.771652    6.463704    77.902206    8.976850    -5.611333    104.512917    4.427911    -16.263304    20.335327    21.367563    -43.244434    8.658788    -7.567075    6.231680    -2.222461    -19.120695    10.967373    45.759373    0.000000    0.000000    0.000000    -29.409220    -42.456711    -8.327686    2.723546    24.279282    0.023114    11.767872    -4.519223    -14.362281    0.000000    0.000000    0.000000    
35.788750    160.040421    -37.444092    31.871309    7.634823    -67.921890    9.970436    9.777844    4.641481    1.804809    -0.203210    1.815741    23.862410    -7.182397    19.466181    -23.390608    0.284577    11.904187    17.703419    -7.145238    -14.376093    -8.523851    -21.489008    -33.693638    20.683956    -47.231739    -3.736330    -25.227209    -38.964615    -45.056355    -7.210203    -0.353858    3.114008    32.799412    6.472916    77.915436    9.005915    -5.559582    104.528198    4.393658    -16.257303    20.381433    21.335068    -43.217037    8.612889    -7.570359    6.225111    -2.176102    -19.111000    10.980256    45.720711    0.000000    0.000000    0.000000    -29.404861    -42.407402    -8.311627    2.715696    24.264528    0.041835    11.778592    -4.517101    -14.386792    0.000000    0.000000    0.000000    
